<svg width="40.000000" height="40.000000" viewBox="0 0 40 40" fill="none" xmlns="http://www.w3.org/2000/svg" xmlns:xlink="http://www.w3.org/1999/xlink">
	<desc>
			Created with Pixso.
	</desc>
	<defs/>
	<rect id="back" rx="20.000000" width="40.000000" height="40.000000" fill="#FF3E79" fill-opacity="1.000000"/>
	<path id="icon" d="M12.7603 23.25L15.3003 22.96C15.9102 22.8899 16.5103 23.1001 16.9402 23.53L18.7803 25.3701C21.6101 23.9299 23.9302 21.6201 25.3701 18.78L23.5203 16.9299C23.0901 16.5 22.8801 15.8999 22.9502 15.29L23.2402 12.77C23.3601 11.76 24.2102 11 25.2302 11L26.9602 11C28.0901 11 29.0303 11.9399 28.9602 13.0701C28.4302 21.6101 21.6001 28.4299 13.0703 28.96C11.9402 29.03 11.0002 28.0901 11.0002 26.96L11.0002 25.23C10.9902 24.22 11.7502 23.3701 12.7603 23.25Z" fill="#FFFFFF" fill-opacity="1.000000" fill-rule="evenodd"/>
</svg>
